<svg xmlns="http://www.w3.org/2000/svg" viewBox="0 0 512 512" role="img" aria-label="TempTalk">
  <defs>
    <radialGradient id="glow" cx="50%" cy="45%" r="62%">
      <stop offset="0%" stop-color="#36ff88" stop-opacity="0.24"/>
      <stop offset="54%" stop-color="#9a5cff" stop-opacity="0.12"/>
      <stop offset="100%" stop-color="#020403" stop-opacity="0"/>
    </radialGradient>
  </defs>
  <rect width="512" height="512" rx="96" fill="#020403"/>
  <rect width="512" height="512" rx="96" fill="url(#glow)"/>
  <rect x="38" y="38" width="436" height="436" rx="78" fill="none" stroke="#36ff88" stroke-width="10" opacity="0.42"/>
  <rect x="130" y="118" width="252" height="252" rx="48" fill="#07140f" stroke="#36ff88" stroke-width="8"/>
  <g fill="none" stroke="#36ff88" stroke-linecap="round" stroke-linejoin="round" stroke-width="2" transform="translate(146 136) scale(9.2)">
    <path d="M2 12C2 6.5 6.5 2 12 2c3.3 0 6.2 1.6 8 4"/>
    <path d="M5 19.5C5.5 18 6 15 6 12a6 6 0 0 1 12 0c0 2.8.5 5.5 1 7.5"/>
    <path d="M8 21c.5-1.5 1-5.2 1-9a3 3 0 0 1 6 0c0 3.8.5 7.5 1 9"/>
    <path d="M12 12v9"/>
  </g>
  <path d="M376 352c34-18 60-48 73-86" fill="none" stroke="#9a5cff" stroke-width="14" stroke-linecap="round" opacity="0.58"/>
  <circle cx="386" cy="143" r="18" fill="#ffc857" opacity="0.9"/>
</svg>
