<svg xmlns="http://www.w3.org/2000/svg" viewBox="0 0 512 512" role="img" aria-label="TempTalk">
  <rect width="512" height="512" rx="96" fill="#020403"/>
  <rect x="34" y="34" width="444" height="444" rx="78" fill="none" stroke="#36ff88" stroke-width="10" opacity="0.55"/>
  <path d="M144 169c0-31 25-56 56-56h112c31 0 56 25 56 56v67c0 31-25 56-56 56h-33l-58 64c-12 13-34 5-34-13v-51h13c-31 0-56-25-56-56v-67Z" fill="#36ff88"/>
  <path d="M198 190h116M198 231h82" stroke="#031008" stroke-width="24" stroke-linecap="round"/>
  <path d="M349 335c0 39-42 64-77 45l-65-36c-19-11-19-38 0-49l65-36c35-19 77 6 77 45v31Z" fill="#9a5cff" opacity="0.9"/>
  <circle cx="337" cy="130" r="28" fill="#ffc857"/>
</svg>
